<!-- Copyright 2000-2021 JetBrains s.r.o. Use of this source code is governed by the Apache 2.0 license that can be found in the LICENSE file. -->
<svg xmlns="http://www.w3.org/2000/svg" width="16" height="16" viewBox="0 0 16 16"> 
 <g fill="none" fill-rule="evenodd"> 
  <path fill="#9AA7B0" fill-opacity=".6" d="M7.9844,4 L6.6964,2.711 C6.3044,2.32 5.5324,2 4.9784,2 L1.0504,2 C1.0234,2 1.0004,2.022 1.0004,2.051 L1.0004,13 L9.0004,13 L9.0004,9 L15.0004,9 L15.0004,4 L7.9844,4 Z" />
  <polygon fill="#F0A732" fill-opacity=".7" points="10 16 16 16 16 10 10 10" /> 
  <!-- 右下角大写T字，加大字体 | Larger capital T in bottom right corner -->
  <path fill="transparent" stroke="#231F20" stroke-width="0.8" stroke-opacity="0.5" d="M11,11 L15,11 M13,11 L13,15" />
  <!-- 替换为大写的T字，增加透明度 | Replaced with capital letter T with increased transparency -->
  <path fill="#231F20" opacity="0.3" d="M11,11.5 L12.5,11.5 L12.5,15 L13.5,15 L13.5,11.5 L15,11.5 L15,10.5 L11,10.5 L11,11.5 Z" />
 </g> 
</svg>
